# xmcd CD database file
#
# Track frame offsets:
#	182
#	65582
#	91095
#	105532
#	137632
#	156707
#	183895
#	188882
#	202082
#	228057
#	253020
#	295630
#	311582
#
# Disc length: 4651 seconds
#
# Revision: 0
# Processed by: cddbd v1.5.1PL0 Copyright (c) Steve Scherf et al.
# Submitted via: CDex 1.51
#
DISCID=b412290d
DTITLE=Craig Harris - F-Stops
DYEAR=1900
DGENRE=Jazz
TTITLE0=Say Essay
TTITLE1=F-Stops: 1st Flow
TTITLE2=F-Stops: 2nd Flow
TTITLE3=F-Stops: 3rd Flow
TTITLE4=F-Stops: 4th Flow
TTITLE5=F-Stops: 5th Flow
TTITLE6=F-Stops: 6th Flow
TTITLE7=F-Stops: 7th Flow
TTITLE8=D.A.S.H.
TTITLE9=Generations
TTITLE10=High Life
TTITLE11=A Soft Shoe
TTITLE12=Burundi
EXTD=
EXTT0=
EXTT1=
EXTT2=
EXTT3=
EXTT4=
EXTT5=
EXTT6=
EXTT7=
EXTT8=
EXTT9=
EXTT10=
EXTT11=
EXTT12=
PLAYORDER=
